<?xml version="1.0" encoding="UTF-8"?>
<svg id="LOGOS_RGB" data-name="LOGOS RGB" xmlns="http://www.w3.org/2000/svg" viewBox="0 0 919.73 310.59">
  <defs>
    <style>
      .cls-1 {
        fill: #9d97ff;
      }

      .cls-1, .cls-2, .cls-3 {
        stroke-width: 0px;
      }

      .cls-2 {
        fill: #6c38fd;
      }

      .cls-3 {
        fill: #fff;
      }
    </style>
  </defs>
  <g>
    <path class="cls-3" d="M372.47,151.34c-5.29-3.15-12.54-5.85-21.76-8.1-7.2-2.02-12.57-3.63-16.11-4.81-3.54-1.18-5.85-2.36-6.92-3.54-1.07-1.18-1.6-2.56-1.6-4.13,0-3.26,1.52-5.68,4.55-7.25,3.04-1.57,7.65-2.36,13.83-2.36,4.72,0,9.02.17,12.9.51,3.88.34,7.34.67,10.37,1.01l12.82,1.52,4.22-22.43-8.1-2.02c-5.4-1.46-10.82-2.59-16.28-3.37-5.46-.79-10.77-1.18-15.94-1.18-9.22,0-17.52,1.24-24.88,3.71-7.37,2.48-13.16,6.35-17.37,11.64-4.22,5.29-6.33,12.15-6.33,20.58,0,6.75,1.15,12.29,3.46,16.62,2.3,4.33,6.21,7.99,11.72,10.96,5.51,2.98,12.93,5.88,22.27,8.69,6.75,2.02,11.72,3.74,14.93,5.14,3.21,1.41,5.26,2.73,6.16,3.96.9,1.24,1.35,2.7,1.35,4.39,0,3.04-1.32,5.37-3.96,7-2.64,1.63-6.89,2.45-12.74,2.45-5.06,0-10.21-.25-15.43-.76-5.23-.51-9.81-1.04-13.75-1.6l-13.33-2.02-4.72,22.77,10.29,2.87c5.74,1.58,11.58,2.81,17.54,3.71,5.96.9,12.03,1.35,18.22,1.35,9.22,0,17.54-1.41,24.96-4.22,7.42-2.81,13.33-7.08,17.71-12.82,4.39-5.74,6.58-13.04,6.58-21.93,0-5.96-1.13-11.05-3.37-15.27-2.25-4.22-6.02-7.9-11.3-11.05Z"/>
    <path class="cls-3" d="M729.27,123.17c-5.34-8.78-12.79-15.35-22.35-19.73-9.56-4.39-20.75-6.59-33.56-6.59h-35.03c-5.99,0-10.86,4.86-10.86,10.86v107.23h44.54c13.38,0,24.97-2.32,34.74-6.93,9.8-4.6,17.32-11.32,22.6-20.15,5.29-8.83,7.93-19.43,7.93-31.8,0-13.15-2.66-24.12-8.01-32.89ZM703.13,174.28c-2.54,4.83-6.32,8.48-11.39,10.96-5.06,2.47-11.47,3.71-19.23,3.71h-15.35v-66.12h15.35c7.98,0,14.5,1.09,19.56,3.28,5.07,2.19,8.81,5.71,11.23,10.54,2.42,4.84,3.62,11.31,3.62,19.4,0,7.31-1.27,13.38-3.79,18.22Z"/>
    <path class="cls-3" d="M549.51,166.52h56v-23.45h-56v-20.58h62.75v-25.64h-81.59c-5.99,0-10.85,4.86-10.85,10.85v107.23h92.16v-25.81h-62.47v-22.6Z"/>
    <path class="cls-3" d="M830.46,167.96c2.47-1.01,4.78-2.2,6.95-3.55,4.77-2.97,8.54-6.94,11.31-11.9,2.74-4.96,4.13-10.96,4.13-18.05,0-7.76-1.78-14.45-5.31-20.08-3.54-5.61-8.5-9.94-14.85-12.98-6.35-3.03-13.92-4.56-22.68-4.56h-46.68c-5.98,0-10.83,4.86-10.83,10.86v107.23h29.68v-41.84h19.24c.27,0,.52,0,.8-.01l24,41.85h32.9l-28.63-46.97ZM818.68,147.2c-3.09,2.54-7.67,3.79-13.74,3.79h-22.78v-29.01h22.6c6.18,0,10.82,1.13,13.91,3.38,3.1,2.25,4.65,5.79,4.65,10.63s-1.54,8.69-4.65,11.22Z"/>
    <path class="cls-3" d="M472.03,96.85l-25.84,47.06h-14.51v-47.06h-18.84c-5.99,0-10.85,4.86-10.85,10.85v107.23h29.69v-47.61h14.21l26.15,47.61h32.95l-32.41-59.03,32.41-59.04h-32.95Z"/>
  </g>
  <g>
    <g id="_Repetición_radial_" data-name="&amp;lt;Repetición radial&amp;gt;">
      <path class="cls-3" d="M158.57,94.26l32.76-32.71,21.07,21.11-43.31,43.24c-8.74,8.73-22.9,8.72-31.63-.02l-43.26-43.31,21.11-21.08,32.71,32.76c2.91,2.91,7.63,2.92,10.54,0Z"/>
    </g>
    <g id="_Repetición_radial_-2" data-name="&amp;lt;Repetición radial&amp;gt;">
      <path class="cls-3" d="M91.86,150.4l-32.71-32.76,21.11-21.07,43.24,43.31c8.73,8.74,8.72,22.9-.02,31.63l-43.31,43.26-21.08-21.11,32.76-32.71c2.91-2.91,2.92-7.63,0-10.54Z"/>
    </g>
    <g id="_Repetición_radial_-3" data-name="&amp;lt;Repetición radial&amp;gt;">
      <path class="cls-3" d="M147.99,217.11l-32.76,32.71-21.07-21.11,43.31-43.24c8.74-8.73,22.9-8.72,31.63.02l43.26,43.31-21.11,21.08-32.71-32.76c-2.91-2.91-7.63-2.92-10.54,0Z"/>
    </g>
    <g id="_Repetición_radial_-4" data-name="&amp;lt;Repetición radial&amp;gt;">
      <path class="cls-1" d="M214.71,160.9l32.71,32.76-21.11,21.07-43.24-43.31c-8.73-8.74-8.72-22.9.02-31.63l43.31-43.26,21.08,21.11-32.76,32.71c-2.91,2.91-2.92,7.63,0,10.54Z"/>
    </g>
    <g id="_Repetición_radial_-5" data-name="&amp;lt;Repetición radial&amp;gt;">
      <path class="cls-2" d="M158.57,94.26l32.76-32.71,21.07,21.11-43.31,43.24c-8.74,8.73-22.9,8.72-31.63-.02l-43.26-43.31,21.11-21.08,32.71,32.76c2.91,2.91,7.63,2.92,10.54,0Z"/>
    </g>
    <g id="_Repetición_radial_-6" data-name="&amp;lt;Repetición radial&amp;gt;">
      <path class="cls-2" d="M91.86,150.4l-32.71-32.76,21.11-21.07,43.24,43.31c8.73,8.74,8.72,22.9-.02,31.63l-43.31,43.26-21.08-21.11,32.76-32.71c2.91-2.91,2.92-7.63,0-10.54Z"/>
    </g>
    <g id="_Repetición_radial_-7" data-name="&amp;lt;Repetición radial&amp;gt;">
      <path class="cls-2" d="M147.99,217.11l-32.76,32.71-21.07-21.11,43.31-43.24c8.74-8.73,22.9-8.72,31.63.02l43.26,43.31-21.11,21.08-32.71-32.76c-2.91-2.91-7.63-2.92-10.54,0Z"/>
    </g>
  </g>
</svg>