<svg xmlns="http://www.w3.org/2000/svg" viewBox="0 0 209.12 62.95"><defs><style>.cls-1{fill:#111641;}</style></defs><title>Asset 8</title><g id="Layer_2" data-name="Layer 2"><g id="Layer_1-2" data-name="Layer 1"><path class="cls-1" d="M25.92,27.22a22.1,22.1,0,0,0-6.48-1.13,7.47,7.47,0,0,0-3.79.84,2.74,2.74,0,0,0-1.43,2.52,3.12,3.12,0,0,0,1.94,2.86,36.1,36.1,0,0,0,6.31,2.28,65.27,65.27,0,0,1,7.91,2.82,14.82,14.82,0,0,1,5.39,4.12A10.9,10.9,0,0,1,38,48.72,12.19,12.19,0,0,1,32.86,59.2Q27.69,63,19.61,63A35,35,0,0,1,8.92,61.31,27.82,27.82,0,0,1,0,56.64l4.21-8.76a26.31,26.31,0,0,0,7.7,4.17,24.58,24.58,0,0,0,8,1.47,8.44,8.44,0,0,0,4.17-.88A2.86,2.86,0,0,0,25.67,50a3.35,3.35,0,0,0-2-3,33.05,33.05,0,0,0-6.35-2.36,63.57,63.57,0,0,1-7.7-2.69,13.7,13.7,0,0,1-5.26-4.08,11.05,11.05,0,0,1-2.19-7.11A12.18,12.18,0,0,1,7.24,20.28q5-3.71,12.79-3.7a34,34,0,0,1,9.26,1.3,30.81,30.81,0,0,1,8.41,3.75l-4.46,8.83A38.15,38.15,0,0,0,25.92,27.22Z"/><path class="cls-1" d="M70.26,62.44,59.32,44l-5.81,6.15V62.44h-13V17.25h13V34.33L70.09,17.25H84.82L68.24,34.67,85.58,62.44Z"/><path class="cls-1" d="M120,23.06q5.69,6.32,5.68,17.59c0,1.34,0,2.38-.08,3.11H93.11a11.51,11.51,0,0,0,11.7,9.09A15.94,15.94,0,0,0,111,51.63a16.13,16.13,0,0,0,5.3-3.58l6.82,6.9a22.86,22.86,0,0,1-8.37,5.93,28.09,28.09,0,0,1-11,2.07,26.18,26.18,0,0,1-12.5-2.86A20.13,20.13,0,0,1,83,52a24.41,24.41,0,0,1-2.9-12A24.51,24.51,0,0,1,83,27.81a20.76,20.76,0,0,1,8.25-8.16,24.77,24.77,0,0,1,12.12-2.9Q114.32,16.75,120,23.06Zm-6.52,13A10.29,10.29,0,0,0,110.62,29a9.66,9.66,0,0,0-7.16-2.69,9.84,9.84,0,0,0-7,2.65,12.25,12.25,0,0,0-3.58,7.19Z"/><path class="cls-1" d="M177.18,0V62.44H164.3V55.79a16,16,0,0,1-6.05,5.35A18.33,18.33,0,0,1,150,63,21.39,21.39,0,0,1,138.76,60a19.52,19.52,0,0,1-7.49-8.2,27,27,0,0,1-2.65-12.2,26.57,26.57,0,0,1,2.61-12,19.14,19.14,0,0,1,7.41-8.08,21.17,21.17,0,0,1,11-2.86q9.6,0,14.64,7.16V0Zm-16,49A13,13,0,0,0,164.3,40a13,13,0,0,0-3.15-9,11.27,11.27,0,0,0-16.33,0,13.3,13.3,0,0,0-3.24,9A13.33,13.33,0,0,0,144.82,49a11.3,11.3,0,0,0,16.33,0Z"/><path class="cls-1" d="M200.28,18.93a18.09,18.09,0,0,1,8.84-2.27v12.2a19.7,19.7,0,0,0-2-.08q-6,0-9.47,3.24a11.21,11.21,0,0,0-3.49,8.63V62.44h-13V17.17h13v8.16A16.54,16.54,0,0,1,200.28,18.93Z"/></g></g></svg>