<svg xmlns="http://www.w3.org/2000/svg" xmlns:xlink="http://www.w3.org/1999/xlink" viewBox="0 0 55.81 46.28"><defs><style>.cls-1{isolation:isolate;}.cls-2{fill:url(#linear-gradient);}.cls-3{fill:#fff;}.cls-4,.cls-5{mix-blend-mode:multiply;}.cls-4{fill:url(#linear-gradient-2);}.cls-5{fill:url(#linear-gradient-3);}</style><linearGradient id="linear-gradient" x1="27.91" y1="41.77" x2="27.91" y2="-3.68" gradientUnits="userSpaceOnUse"><stop offset="0" stop-color="#eb7976"/><stop offset="1" stop-color="#ffe5ad"/></linearGradient><linearGradient id="linear-gradient-2" x1="10" y1="36.92" x2="10" y2="19.17" xlink:href="#linear-gradient"/><linearGradient id="linear-gradient-3" x1="27.36" y1="31.77" x2="27.36" y2="24.3" xlink:href="#linear-gradient"/></defs><title>Asset 5</title><g class="cls-1"><g id="Layer_2" data-name="Layer 2"><g id="Layer_1-2" data-name="Layer 1"><path class="cls-2" d="M50.73,4.59H5.08a.46.46,0,0,0-.44.48v29L16.85,20.77l9,9.8,5-5.46,8.57,9.33H51.17V5.07A.46.46,0,0,0,50.73,4.59ZM41,17.72a3.67,3.67,0,0,1-3.58-3.53,3.59,3.59,0,0,1,7.17,0A3.69,3.69,0,0,1,41,17.72Z"/><polygon class="cls-3" points="18.26 28.51 24.42 32.35 24.48 32.19 16.68 23.47 6.95 34.06 16.58 34.06 14.91 29.83 20 32.14 18.26 28.51"/><polygon class="cls-3" points="31.74 31.28 35.25 33.47 35.29 33.37 30.84 28.41 25.29 34.44 30.78 34.44 29.83 32.03 32.74 33.35 31.74 31.28"/><polygon class="cls-4" points="4.64 27.98 4.64 34.06 15.35 22.4 4.64 27.98"/><polygon class="cls-5" points="30.37 25.66 24.34 28.92 25.86 30.57 30.37 25.66"/><path class="cls-3" d="M52.25,0H3.56A3.73,3.73,0,0,0,0,3.87V42.75a3.4,3.4,0,0,0,3.25,3.53H52.56a3.4,3.4,0,0,0,3.25-3.53V3.87A3.73,3.73,0,0,0,52.25,0ZM3.56,2H52.25A1.82,1.82,0,0,1,54,3.87V37.26H1.82V3.87A1.82,1.82,0,0,1,3.56,2Z"/></g></g></g></svg>